<svg width="694" height="708" viewBox="0 0 694 708" fill="none" xmlns="http://www.w3.org/2000/svg">
<g filter="url(#filter0_bd_1_90)">
<path d="M69.0578 281.804L69.0579 281.804L69.0605 281.811C80.8074 314.336 69.7084 341.584 58.0476 370.211C57.3838 371.841 56.7182 373.475 56.0549 375.115C43.7351 405.57 32.1835 438.024 47.5348 480.449C51.3716 491.053 56.2356 498.732 61.9016 504.311C67.5669 509.889 74.0412 513.376 81.1097 515.584C88.1804 517.794 95.8454 518.725 103.891 519.19C108.533 519.459 113.292 519.572 118.134 519.688C121.691 519.773 125.293 519.859 128.928 520.008C146.072 520.712 163.84 522.825 180.433 532.913C197.029 543.002 212.425 561.054 224.864 593.589C249.675 658.488 317.594 675.125 379.693 661.312C410.738 654.406 440.307 639.892 462.271 620.013C484.235 600.135 498.586 574.9 499.225 546.548C499.866 518.127 502.686 498.747 507.9 483.891C513.116 469.028 520.726 458.704 530.925 448.387C536.355 442.895 542.517 437.406 549.444 431.236C568.534 414.232 593.433 392.055 624.827 350.366C667.565 293.615 659.258 217.417 624.562 161.337C589.864 105.254 528.826 69.3643 466.154 93.128C434.758 105.033 412.99 110.991 395.299 112.481C377.6 113.972 363.99 110.989 348.915 105.03C340.652 101.763 331.951 97.6039 321.894 92.7967C295.267 80.069 259.137 62.7988 196.461 45.5212C156.599 34.5331 125.715 36.4751 102.559 47.3779C79.4043 58.2797 63.9493 78.1536 54.9704 103.086C37.0087 152.96 44.9794 223.038 69.0578 281.804ZM88.5129 285.973L88.5131 285.973L88.5155 285.979C99.6599 316.446 89.5107 342.076 78.8732 368.939C78.3191 370.338 77.7636 371.741 77.2098 373.148C66.0204 401.572 55.471 431.744 69.6189 470.842C76.8463 490.814 87.7786 499.932 100.829 504.261C111.3 507.735 123.136 508.128 135.555 508.54C138.643 508.643 141.767 508.746 144.916 508.899C160.71 509.665 177.079 511.662 192.403 520.959C207.731 530.257 221.992 546.842 233.604 576.736C256.894 636.493 319.966 652.182 377.567 639.56C406.363 633.249 433.77 619.865 454.121 601.393C474.471 582.921 487.757 559.37 488.338 532.719C488.921 506.156 491.572 488.047 496.455 474.178C501.34 460.304 508.455 450.684 517.943 441.096C522.925 436.063 528.559 431.038 534.869 425.412C552.591 409.608 575.645 389.049 604.558 350.161C643.719 297.491 636.059 227.069 603.982 175.204C571.903 123.337 515.456 90.1002 457.091 111.701C428.287 122.523 408.2 127.947 391.783 129.299C375.359 130.652 362.616 127.929 348.504 122.476C340.58 119.414 332.228 115.494 322.551 110.952C297.758 99.3161 264.262 83.5957 206.973 67.7553C170.393 57.6515 141.922 59.4658 120.487 69.5403C99.0537 79.6139 84.6279 97.959 76.161 120.971C59.2235 167.007 66.1493 231.684 88.5129 285.973ZM207.069 67.4102L207.021 67.5828L207.069 67.4103C264.389 83.2595 297.937 99.004 322.733 110.641C332.4 115.178 340.736 119.09 348.633 122.142C362.707 127.58 375.395 130.29 391.754 128.943C408.12 127.595 428.17 122.185 456.966 111.366L456.967 111.365C515.552 89.6829 572.157 123.067 604.286 175.016C636.417 226.966 644.119 297.553 604.846 350.375C575.908 389.295 552.812 409.891 535.088 425.697C528.786 431.317 523.163 436.331 518.198 441.348C508.735 450.91 501.656 460.486 496.793 474.297C491.928 488.114 489.278 506.18 488.696 532.727C488.112 559.499 474.765 583.138 454.362 601.658C433.959 620.177 406.493 633.587 377.644 639.909C319.955 652.551 256.652 636.857 233.27 576.866L233.437 576.801L233.27 576.866C221.678 547.023 207.46 530.511 192.218 521.265C176.972 512.016 160.678 510.021 144.899 509.256C141.765 509.105 138.651 509.001 135.569 508.899C123.144 508.487 111.242 508.092 100.716 504.601C87.5529 500.234 76.5437 491.03 69.2823 470.964C55.0865 431.733 65.6831 401.452 76.8768 373.017C77.4273 371.618 77.9793 370.224 78.5298 368.834C89.1751 341.948 99.275 316.439 88.1806 286.106C65.7975 231.768 58.8464 166.995 75.8251 120.848C84.3166 97.7685 98.7976 79.3388 120.335 69.2163C141.87 59.0947 170.434 57.2915 207.069 67.4102ZM107.969 290.141L107.969 290.141L107.971 290.148C118.516 318.557 109.319 342.574 99.7063 367.675C99.2597 368.841 98.8122 370.009 98.3658 371.181C88.3067 397.575 78.7594 425.464 91.7038 461.235C98.4887 479.982 108.574 488.694 120.549 492.938C130.336 496.406 141.389 496.894 152.977 497.405C155.595 497.521 158.241 497.637 160.905 497.79C175.348 498.617 190.318 500.499 204.375 509.005C218.435 517.511 231.559 532.629 242.345 559.883C264.114 614.498 322.339 629.24 375.442 617.808C428.554 606.374 476.406 568.786 477.452 518.89C477.977 494.185 480.46 477.346 485.012 464.465C489.565 451.579 496.186 442.665 504.963 433.806C509.497 429.229 514.606 424.668 520.303 419.58C536.658 404.977 557.867 386.039 584.29 349.956C619.874 301.366 612.861 236.72 583.403 189.071C553.944 141.421 502.087 110.836 448.03 130.274C421.816 140.014 403.411 144.903 388.268 146.117C373.119 147.332 361.244 144.868 348.093 139.921C340.497 137.064 332.479 133.38 323.159 129.099C300.211 118.556 269.369 104.387 217.487 89.9894C184.188 80.77 158.131 82.4566 138.417 91.7028C118.704 100.948 105.307 117.765 97.3524 138.858C81.4392 181.054 87.3202 240.33 107.969 290.141ZM217.583 89.6444L217.535 89.8169L217.583 89.6445C269.494 104.05 300.39 118.243 323.342 128.788C332.65 133.064 340.652 136.74 348.219 139.586C361.332 144.519 373.154 146.97 388.24 145.761C403.333 144.55 421.701 139.675 447.906 129.938L447.908 129.937C502.183 110.421 554.197 141.149 583.707 188.883C613.219 236.618 620.273 301.428 584.579 350.168C558.13 386.284 536.88 405.259 520.523 419.865C514.833 424.945 509.736 429.497 505.217 434.058C496.466 442.891 489.881 451.762 485.349 464.585C480.816 477.413 478.334 494.209 477.81 518.897C476.759 569.038 428.7 606.709 375.517 618.158C322.326 629.609 263.873 614.86 242.012 560.016L242.012 560.015C231.247 532.813 218.165 517.767 204.189 509.311C190.211 500.853 175.315 498.973 160.885 498.147C158.233 497.995 155.596 497.879 152.983 497.764C141.392 497.253 130.272 496.763 120.429 493.275C108.343 488.992 98.1845 480.194 91.3672 461.357C78.3753 425.454 87.9688 397.456 98.0313 371.053C98.4744 369.891 98.9183 368.731 99.3612 367.575C108.981 342.451 118.131 318.554 107.637 290.275C86.9676 240.412 81.0621 181.039 97.0175 138.731C104.997 117.572 118.449 100.672 138.265 91.3787C158.078 82.0858 184.229 80.4098 217.583 89.6444ZM127.426 294.31L127.428 294.315C137.375 320.671 129.133 343.08 120.548 366.42C120.206 367.35 119.864 368.28 119.522 369.213C110.594 393.576 102.048 419.183 113.789 451.627C120.132 469.15 129.37 477.456 140.27 481.614C149.372 485.087 159.637 485.672 170.391 486.286C172.541 486.408 174.711 486.532 176.895 486.68C189.987 487.569 203.557 489.336 216.346 497.05C229.139 504.766 241.126 518.416 251.086 543.029C271.334 592.502 324.712 606.297 373.318 596.055C421.931 585.812 465.637 551.553 466.567 505.06L466.746 505.063L466.567 505.06C467.033 482.213 469.348 466.645 473.569 454.752C477.791 442.854 483.917 434.646 491.983 426.514C496.072 422.393 500.658 418.292 505.747 413.741C520.736 400.337 540.098 383.022 564.023 349.751C596.029 305.241 589.663 246.371 562.825 202.938C535.985 159.504 488.718 131.572 438.968 148.847C415.346 157.505 398.622 161.859 384.754 162.935C370.879 164.012 359.872 161.808 347.683 157.367C340.395 154.711 332.691 151.26 323.7 147.232C302.613 137.785 274.452 125.169 228.001 112.223C197.984 103.888 174.34 105.447 156.347 113.865C138.354 122.282 125.987 137.57 118.544 156.743C103.655 195.1 108.492 248.975 127.426 294.31ZM228.097 111.878L228.097 111.878C274.573 124.831 302.79 137.471 323.884 146.921C332.862 150.943 340.55 154.387 347.806 157.031C359.958 161.458 370.914 163.65 384.727 162.578C398.546 161.506 415.233 157.165 438.846 148.51L438.849 148.509C488.815 131.158 536.237 159.231 563.129 202.75C590.021 246.269 596.427 305.301 564.313 349.96C540.363 383.267 520.959 400.618 505.969 414.024C500.886 418.569 496.311 422.661 492.237 426.767C484.197 434.872 478.106 443.037 473.906 454.872C469.704 466.712 467.39 482.237 466.925 505.067C465.99 551.804 422.078 586.147 373.392 596.406C324.697 606.666 271.095 592.863 250.755 543.165L250.755 543.164C240.816 518.602 228.871 505.022 216.162 497.356C203.449 489.689 189.951 487.925 176.871 487.038C174.697 486.89 172.533 486.767 170.387 486.644C159.633 486.032 149.301 485.443 140.142 481.949C129.133 477.749 119.826 469.357 113.453 451.749C101.665 419.175 110.255 393.46 119.186 369.09C119.525 368.167 119.863 367.246 120.201 366.327C128.794 342.963 136.992 320.672 127.094 294.445C108.138 249.055 103.278 195.082 118.211 156.614C125.679 137.375 138.102 122.005 156.195 113.541C174.287 105.076 198.023 103.528 228.097 111.878ZM146.883 298.478L146.885 298.484L259.828 526.177C278.554 570.508 327.086 583.355 371.194 574.304C415.307 565.251 454.868 534.321 455.682 491.231C456.089 470.242 458.236 455.944 462.126 445.04C466.017 434.13 471.648 426.627 479.004 419.224C482.649 415.556 486.715 411.913 491.205 407.891C504.828 395.688 522.341 380 543.755 349.547C572.185 309.118 566.466 256.023 542.246 216.805C518.027 177.587 475.35 152.308 429.907 167.42C408.875 174.996 393.834 178.815 381.24 179.754C368.641 180.693 358.5 178.748 347.274 174.813C340.28 172.362 332.856 169.135 324.152 165.351C318.899 163.068 313.18 160.581 306.807 157.941C289.867 150.921 268.286 142.798 238.516 134.457C211.78 127.007 190.549 128.438 174.277 136.028C158.005 143.617 146.667 157.376 139.736 174.631C125.872 209.148 129.664 257.622 146.883 298.478ZM238.612 134.113L238.612 134.113C268.399 142.458 289.993 150.586 306.944 157.61C313.333 160.258 319.059 162.747 324.313 165.031C333.006 168.81 340.409 172.028 347.392 174.475C358.584 178.398 368.674 180.331 381.214 179.397C393.759 178.462 408.766 174.655 429.787 167.083L429.792 167.081C475.447 151.897 518.278 177.313 542.551 216.617C566.824 255.922 572.582 309.176 544.048 349.753C522.607 380.243 505.052 395.968 491.427 408.174C486.945 412.189 482.888 415.823 479.258 419.476C471.928 426.854 466.331 434.313 462.463 445.16C458.592 456.012 456.447 470.266 456.039 491.238C455.222 534.57 415.457 565.586 371.266 574.655C327.069 583.724 278.317 570.867 259.498 526.316L259.498 526.315C250.385 504.393 239.577 492.278 228.134 485.403C216.689 478.526 204.588 476.877 192.857 475.929C191.156 475.791 189.461 475.668 187.777 475.546C177.867 474.827 168.328 474.135 159.855 470.623C149.923 466.506 141.467 458.52 135.539 442.142C124.954 412.897 132.542 389.465 140.342 367.127C140.579 366.449 140.816 365.771 141.053 365.094C148.614 343.489 155.857 322.796 146.552 298.615C129.309 257.699 125.495 209.126 139.404 174.497C146.361 157.178 157.754 143.339 174.126 135.703C190.496 128.068 211.818 126.646 238.612 134.113ZM166.872 302.647L166.874 302.652C175.641 324.915 169.322 344.133 162.803 363.959C162.658 364.398 162.514 364.838 162.369 365.277C155.701 385.581 149.159 406.623 158.494 432.414C163.952 447.489 171.497 454.983 180.248 458.971C187.973 462.491 196.647 463.286 205.713 464.118C206.939 464.23 208.172 464.343 209.41 464.464C219.798 465.474 230.571 467.011 240.823 473.142C251.079 479.275 260.795 489.992 269.102 509.324C286.308 548.513 329.994 560.413 369.603 552.553C409.217 544.691 444.632 517.089 445.329 477.402C445.679 458.272 447.658 445.244 451.216 435.328C454.776 425.405 459.912 418.608 466.557 411.934C469.761 408.716 473.314 405.527 477.21 402.03C489.47 391.026 505.131 376.969 524.02 349.344C548.874 312.994 543.801 265.675 522.201 230.673C500.601 195.672 462.514 173.044 421.377 185.994C402.937 192.488 389.577 195.772 378.259 196.572C366.935 197.373 357.662 195.688 347.398 192.26C340.647 190.005 333.459 186.993 324.976 183.437C320.573 181.592 315.822 179.601 310.602 177.493C295.315 171.322 275.984 164.143 249.563 156.692C226.109 150.126 207.291 151.429 192.74 158.191C178.188 164.952 167.879 177.183 161.461 192.518C148.621 223.196 151.369 266.269 166.872 302.647ZM249.66 156.347L249.66 156.347C276.096 163.803 295.439 170.986 310.736 177.161C315.969 179.274 320.727 181.268 325.131 183.114C333.605 186.666 340.773 189.67 347.511 191.92C357.742 195.338 366.966 197.012 378.234 196.215C389.506 195.418 402.831 192.146 421.261 185.655L421.267 185.654C462.612 172.636 500.851 195.395 522.505 230.485C544.16 265.574 549.269 313.051 524.315 349.546C505.4 377.211 489.696 391.305 477.434 402.311C473.544 405.802 470.001 408.982 466.811 412.186C460.191 418.836 455.09 425.59 451.552 435.448C448.013 445.313 446.036 458.296 445.687 477.409C444.986 517.336 409.368 545.026 369.672 552.904C329.972 560.783 286.073 548.871 268.774 509.467L268.773 509.466C260.488 490.184 250.815 479.535 240.64 473.45C230.46 467.362 219.757 465.83 209.376 464.82C208.14 464.699 206.908 464.587 205.682 464.474C196.624 463.644 187.884 462.844 180.1 459.297C171.245 455.262 163.641 447.684 158.157 432.536C148.777 406.619 155.361 385.47 162.029 365.166C162.17 364.737 162.311 364.309 162.451 363.882C168.978 344.031 175.26 324.926 166.542 302.785C151.012 266.343 148.244 223.169 161.131 192.38C167.576 176.981 177.94 164.673 192.589 157.866C207.237 151.06 226.146 149.765 249.66 156.347ZM187.492 306.817L187.494 306.821C195.682 327.048 190.335 344.689 184.855 362.764L184.69 363.309C179.152 381.583 173.612 400.343 181.743 422.808C186.759 436.659 193.458 443.749 201.136 447.651C208.168 451.225 216.035 452.135 224.246 453.085C225.016 453.174 225.79 453.264 226.566 453.356C235.602 454.428 244.975 455.85 253.959 461.189C262.946 466.53 271.525 475.779 279.007 492.47C294.69 526.52 333.532 537.472 368.643 530.802C403.756 524.131 435.027 499.858 435.607 463.574C435.899 446.302 437.709 434.545 440.936 425.616C444.165 416.682 448.808 410.59 454.741 404.644C457.507 401.872 460.552 399.133 463.866 396.152C474.765 386.348 488.572 373.927 504.915 349.142C526.193 316.872 521.767 275.327 502.786 244.541C483.807 213.757 450.309 193.78 413.479 204.568C397.629 209.98 385.952 212.729 375.908 213.391C365.859 214.055 357.455 212.629 348.153 209.707C341.579 207.642 334.55 204.826 326.176 201.472C322.711 200.084 319.016 198.604 315.027 197.047C301.393 191.723 284.312 185.488 261.241 178.927C241.069 173.246 224.665 174.421 211.833 180.354C199.002 186.288 189.722 196.991 183.816 210.407C172.001 237.246 173.705 274.916 187.492 306.817ZM261.338 178.583L261.338 178.583C284.424 185.148 301.515 191.386 315.157 196.713C319.156 198.274 322.856 199.756 326.323 201.145C334.691 204.497 341.7 207.305 348.26 209.366C357.53 212.278 365.89 213.694 375.884 213.034C385.883 212.374 397.528 209.637 413.367 204.228L413.374 204.226C450.409 193.376 484.055 213.478 503.091 244.353C522.126 275.228 526.587 316.925 505.214 349.339C488.843 374.166 474.993 386.625 464.092 396.431C460.784 399.407 457.747 402.138 454.995 404.897C449.086 410.818 444.479 416.866 441.273 425.737C438.065 434.613 436.256 446.326 435.965 463.58C435.381 500.102 403.911 524.466 368.71 531.153C333.506 537.841 294.459 526.875 278.681 492.619L278.68 492.618C271.221 475.976 262.685 466.792 253.776 461.497C244.863 456.199 235.557 454.783 226.524 453.711C225.746 453.619 224.97 453.529 224.196 453.44C215.998 452.492 208.067 451.575 200.974 447.97C193.198 444.018 186.446 436.847 181.406 422.93C173.23 400.342 178.811 381.476 184.348 363.205L184.502 362.697C189.988 344.598 195.303 327.066 187.163 306.956C173.346 274.987 171.625 237.212 183.488 210.263C189.422 196.784 198.757 186.007 211.683 180.03C224.609 174.052 241.104 172.884 261.338 178.583ZM208.147 310.986L208.148 310.989C215.728 329.095 211.451 345.104 207.046 361.34L206.972 361.611C202.587 377.769 198.137 394.17 205.027 413.202C209.601 425.831 215.454 432.516 222.06 436.333C228.398 439.995 235.444 441.029 242.788 442.106C243.111 442.154 243.434 442.201 243.758 442.249C251.441 443.382 259.414 444.689 267.128 449.236C274.847 453.785 282.29 461.567 288.945 475.617C303.108 504.527 337.105 514.531 367.718 509.051C398.33 503.571 425.456 482.627 425.92 449.746C426.153 434.332 427.796 423.845 430.691 415.904C433.589 407.958 437.737 402.572 442.96 397.355C445.292 395.025 447.837 392.729 450.582 390.253C460.123 381.648 472.073 370.87 485.844 348.941C503.548 320.75 499.767 284.98 483.406 258.41C467.046 231.842 438.139 214.516 405.613 223.144C392.355 227.473 382.359 229.686 373.591 230.211C364.819 230.736 357.283 229.571 348.944 227.155C342.427 225.267 335.415 222.614 326.939 219.407C324.576 218.513 322.099 217.576 319.488 216.601C307.506 212.125 292.675 206.834 272.953 201.163C256.063 196.366 242.072 197.413 230.961 202.519C219.85 207.625 211.598 216.8 206.205 228.297C195.415 251.298 196.075 283.565 208.147 310.986ZM273.051 200.818L273.052 200.818C292.786 206.493 307.626 211.787 319.613 216.265C322.23 217.243 324.71 218.181 327.074 219.076C335.547 222.281 342.542 224.928 349.043 226.811C357.353 229.218 364.847 230.376 373.57 229.854C382.296 229.332 392.26 227.128 405.507 222.802L405.507 222.802L405.517 222.799C438.239 214.116 467.293 231.561 483.711 258.222C500.127 284.882 503.939 320.8 486.147 349.131C472.347 371.107 460.353 381.924 450.81 390.53C448.071 393.001 445.533 395.29 443.213 397.608C438.015 402.801 433.902 408.144 431.028 416.027C428.151 423.915 426.511 434.356 426.278 449.751C425.81 482.868 398.489 503.906 367.781 509.403C337.074 514.9 302.88 504.879 288.623 475.773L288.622 475.771C281.99 461.77 274.59 454.05 266.947 449.544C259.299 445.037 251.39 443.736 243.706 442.603C243.375 442.554 243.044 442.506 242.714 442.457C235.389 441.383 228.28 440.34 221.881 436.643C215.185 432.773 209.285 426.01 204.69 413.324C197.762 394.185 202.238 377.689 206.618 361.548L206.7 361.246C211.108 345.001 215.344 329.106 207.818 311.128C195.714 283.631 195.04 251.254 205.881 228.145C211.303 216.587 219.609 207.342 230.812 202.193C242.015 197.045 256.096 196.003 273.051 200.818ZM228.851 315.156L228.852 315.158C235.741 330.937 232.728 345.163 229.452 359.371C229.364 359.752 229.276 360.134 229.188 360.515C225.991 374.352 222.789 388.208 228.361 403.597C232.493 415.003 237.501 421.285 243.037 425.017C248.577 428.753 254.665 429.948 261.002 431.143L261.339 431.207C267.564 432.38 274.018 433.596 280.348 437.284C286.797 441.041 293.104 447.354 298.934 458.764C311.576 482.536 340.73 491.591 366.844 487.301C392.953 483.012 415.935 465.399 416.283 435.92C416.458 422.363 417.933 413.147 420.497 406.194C423.063 399.236 426.717 394.555 431.229 390.066C433.134 388.171 435.191 386.31 437.384 384.325C445.572 376.918 455.66 367.792 466.823 348.742C480.953 324.629 477.818 294.633 464.076 272.279C450.337 249.929 426.018 235.252 397.797 241.72C376.451 248.218 364.549 248.425 349.786 244.604C343.072 242.867 335.767 240.296 326.717 237.111C325.828 236.799 324.923 236.48 324 236.156C313.67 232.527 301.089 228.181 284.716 223.399C271.109 219.487 259.531 220.405 250.14 224.684C240.747 228.963 233.524 236.611 228.643 246.19C218.879 265.352 218.497 292.217 228.851 315.156ZM284.815 223.055L284.815 223.055C301.198 227.84 313.786 232.189 324.118 235.818C325.041 236.142 325.945 236.46 326.832 236.772C335.887 239.959 343.178 242.524 349.875 244.258C364.562 248.059 376.397 247.861 397.699 241.376L397.699 241.375L397.711 241.373C426.12 234.859 450.582 249.644 464.381 272.092C478.179 294.537 481.341 324.676 467.132 348.923C455.938 368.025 445.805 377.192 437.614 384.601C435.426 386.581 433.376 388.435 431.481 390.32C426.994 394.785 423.376 399.423 420.833 406.317C418.288 413.217 416.816 422.388 416.641 435.924C416.29 465.635 393.117 483.348 366.902 487.654C340.691 491.96 311.353 482.883 298.617 458.929L298.615 458.927C292.81 447.565 286.547 441.309 280.168 437.593C273.892 433.937 267.49 432.73 261.254 431.555L260.936 431.495C254.606 430.301 248.447 429.097 242.837 425.314C237.221 421.528 232.174 415.174 228.024 403.719C222.416 388.229 225.639 374.28 228.833 360.462C228.923 360.071 229.013 359.681 229.103 359.29C232.38 345.079 235.361 330.962 228.525 315.303C218.131 292.275 218.505 265.296 228.324 246.027C233.235 236.39 240.512 228.676 249.991 224.358C259.472 220.039 271.139 219.124 284.815 223.055ZM249.631 319.331L249.631 319.332C255.828 332.783 254.079 345.224 251.933 357.404C251.809 358.111 251.683 358.816 251.557 359.521C249.515 370.978 247.508 382.232 251.77 393.998C255.461 404.182 259.624 410.063 264.091 413.711C268.558 417.359 273.345 418.79 278.324 420.044C278.852 420.177 279.383 420.309 279.916 420.44C284.396 421.548 289.019 422.691 293.642 425.337C298.82 428.301 303.99 433.144 308.994 441.911C320.115 460.551 344.431 468.657 366.046 465.557C376.849 464.007 386.96 459.66 394.398 452.445C401.833 445.233 406.605 435.147 406.721 422.098C406.838 410.4 408.144 402.454 410.378 396.488C412.613 390.518 415.772 386.543 419.573 382.783C421.059 381.312 422.644 379.874 424.31 378.362C431.151 372.151 439.372 364.689 447.876 348.551C458.433 328.515 455.943 304.292 444.821 286.154C433.702 268.022 413.972 255.993 390.053 260.302C373.89 264.635 363.537 264.866 350.704 262.059C344.293 260.657 337.265 258.497 328.588 255.717C326.935 255.187 325.222 254.635 323.443 254.061C315.877 251.622 307.097 248.792 296.553 245.641C286.229 242.615 277.065 243.403 269.392 246.854C261.718 250.307 255.524 256.429 251.155 264.09C242.416 279.415 240.995 300.875 249.631 319.331ZM296.653 245.297L296.654 245.298C307.204 248.45 315.988 251.282 323.554 253.721C325.333 254.295 327.045 254.847 328.697 255.376C337.375 258.156 344.388 260.311 350.78 261.709C363.551 264.502 373.847 264.277 389.968 259.955L389.975 259.953L389.982 259.951C414.077 255.608 433.945 267.733 445.126 285.967C456.305 304.197 458.817 328.556 448.192 348.718C439.657 364.916 431.387 372.422 424.542 378.635C422.88 380.143 421.302 381.575 419.825 383.037C416.048 386.775 412.924 390.707 410.713 396.614C408.5 402.525 407.195 410.425 407.079 422.102C406.962 435.244 402.152 445.421 394.647 452.702C387.145 459.979 376.958 464.353 366.096 465.911C344.382 469.026 319.901 460.892 308.686 442.093L308.685 442.09C303.706 433.368 298.579 428.575 293.465 425.648C288.887 423.028 284.314 421.897 279.829 420.788C279.297 420.656 278.766 420.525 278.237 420.391C273.25 419.135 268.396 417.689 263.864 413.988C259.332 410.286 255.138 404.343 251.433 394.12C247.138 382.261 249.161 370.917 251.201 359.478C251.328 358.766 251.455 358.054 251.58 357.342C253.726 345.165 255.453 332.823 249.306 319.482C240.622 300.922 242.047 279.339 250.844 263.912C255.244 256.197 261.491 250.016 269.245 246.528C277.002 243.039 286.255 242.249 296.653 245.297ZM308.606 267.539L308.607 267.539C347.32 279.552 360.481 282.85 382.356 278.531L382.363 278.53L382.371 278.529C402.147 276.356 417.42 285.819 425.984 299.841C434.545 313.857 436.405 332.433 429.368 348.507C423.567 361.756 417.166 367.586 411.653 372.606C410.484 373.671 409.355 374.699 408.28 375.754C405.214 378.763 402.585 381.99 400.705 386.909C398.824 391.832 397.688 398.461 397.63 408.278C397.571 419.713 393.831 428.209 387.937 434.086C382.045 439.961 374.016 443.205 365.402 444.167C348.183 446.089 328.564 438.899 318.872 425.26L318.87 425.257C314.72 419.174 310.728 415.842 306.875 413.702C304.006 412.108 301.216 411.174 298.475 410.257C297.526 409.94 296.583 409.624 295.644 409.284C291.998 407.962 288.452 406.274 285.001 402.655C281.555 399.04 278.214 393.509 274.955 384.519C271.961 376.256 272.879 367.619 273.831 358.662C273.946 357.578 274.061 356.49 274.171 355.397C275.185 345.255 275.659 334.687 270.201 323.662C263.223 309.564 265.705 293.375 273.48 281.793C281.256 270.21 294.351 263.204 308.606 267.539ZM291.272 327.853C285.991 318.206 289.55 307.404 296.297 299.676C299.673 295.809 303.857 292.699 308.156 290.874C312.454 289.049 316.883 288.503 320.736 289.79C343.503 297.393 359.849 297.244 371.32 297.139C372.586 297.127 373.792 297.116 374.941 297.116C390.392 297.116 401.071 303.915 407.017 313.725C412.959 323.527 414.166 336.317 410.72 348.295C408.996 354.286 406.728 358.188 404.293 361.169C402.578 363.268 400.776 364.913 399.037 366.5C398.314 367.161 397.601 367.811 396.911 368.48C394.554 370.762 392.421 373.284 390.872 377.214C389.323 381.148 388.355 386.506 388.355 394.464C388.355 404.188 385.686 411.003 381.403 415.478C377.12 419.953 371.245 422.067 364.878 422.432C352.154 423.161 337.403 416.912 329.242 408.445C324.545 403.571 320.795 401.851 317.372 400.281C315.943 399.626 314.572 398.997 313.212 398.175C308.596 395.387 304.278 390.44 298.652 374.928C297.574 371.959 297.176 368.615 297.032 365.009C296.944 362.838 296.949 360.56 296.954 358.207C296.957 356.657 296.96 355.074 296.937 353.468C296.821 345.361 296.042 336.565 291.272 327.853ZM320.622 290.13C316.877 288.879 312.542 289.401 308.296 291.203C304.052 293.005 299.911 296.081 296.567 299.911C289.873 307.577 286.405 318.216 291.586 327.681C296.398 336.471 297.178 345.338 297.295 353.462C297.318 355.083 297.315 356.67 297.312 358.222C297.307 360.566 297.302 362.828 297.389 364.994C297.534 368.588 297.93 371.888 298.988 374.806C304.606 390.294 308.887 395.145 313.397 397.869C314.71 398.662 316.056 399.28 317.47 399.929C320.911 401.508 324.754 403.272 329.5 408.197C337.591 416.592 352.242 422.798 364.858 422.074C371.16 421.713 376.94 419.624 381.144 415.231C385.347 410.839 387.997 404.122 387.997 394.464C387.997 386.48 388.968 381.073 390.539 377.083C392.113 373.089 394.284 370.526 396.662 368.223C397.367 367.54 398.087 366.882 398.815 366.218C400.547 364.637 402.318 363.02 404.016 360.942C406.419 358.001 408.665 354.142 410.376 348.196C413.799 336.299 412.594 323.614 406.711 313.91C400.833 304.213 390.274 297.474 374.941 297.474C373.793 297.474 372.588 297.485 371.323 297.497C359.846 297.602 343.447 297.752 320.622 290.13ZM382.417 278.884C360.448 283.22 347.204 279.89 308.501 267.881C294.437 263.604 281.49 270.502 273.777 281.992C266.063 293.483 263.609 309.536 270.522 323.503C276.027 334.625 275.542 345.28 274.527 355.432C274.417 356.527 274.302 357.615 274.187 358.698C273.235 367.667 272.327 376.217 275.292 384.397C278.541 393.361 281.86 398.842 285.261 402.408C288.658 405.971 292.148 407.635 295.766 408.947C296.689 409.282 297.622 409.594 298.565 409.909C301.315 410.829 304.148 411.777 307.049 413.389C310.954 415.558 314.986 418.929 319.165 425.054C328.767 438.566 348.247 445.722 365.362 443.811C373.915 442.856 381.862 439.638 387.684 433.833C393.503 428.03 397.214 419.629 397.272 408.276C397.33 398.435 398.469 391.759 400.371 386.781C402.275 381.799 404.94 378.53 408.03 375.498C409.112 374.436 410.246 373.403 411.418 372.336C416.925 367.319 423.272 361.538 429.04 348.364C436.028 332.401 434.181 313.949 425.679 300.028C417.181 286.114 402.038 276.731 382.417 278.884Z" stroke="url(#paint0_linear_1_90)" stroke-width="0.357935" shape-rendering="crispEdges"/>
</g>
<defs>
<filter id="filter0_bd_1_90" x="-46.24" y="-48.24" width="786.48" height="800.48" filterUnits="userSpaceOnUse" color-interpolation-filters="sRGB">
<feFlood flood-opacity="0" result="BackgroundImageFix"/>
<feGaussianBlur in="BackgroundImageFix" stdDeviation="43.12"/>
<feComposite in2="SourceAlpha" operator="in" result="effect1_backgroundBlur_1_90"/>
<feColorMatrix in="SourceAlpha" type="matrix" values="0 0 0 0 0 0 0 0 0 0 0 0 0 0 0 0 0 0 127 0" result="hardAlpha"/>
<feMorphology radius="1.70989" operator="erode" in="SourceAlpha" result="effect2_dropShadow_1_90"/>
<feOffset dy="1.70989"/>
<feGaussianBlur stdDeviation="20.5187"/>
<feComposite in2="hardAlpha" operator="out"/>
<feColorMatrix type="matrix" values="0 0 0 0 0 0 0 0 0 0 0 0 0 0 0 0 0 0 0.18 0"/>
<feBlend mode="normal" in2="effect1_backgroundBlur_1_90" result="effect2_dropShadow_1_90"/>
<feBlend mode="normal" in="SourceGraphic" in2="effect2_dropShadow_1_90" result="shape"/>
</filter>
<linearGradient id="paint0_linear_1_90" x1="40" y1="38" x2="332.166" y2="790.891" gradientUnits="userSpaceOnUse">
<stop stop-color="#F4F4F4"/>
<stop offset="0.312947" stop-opacity="0"/>
<stop offset="1" stop-color="#F4F4F4"/>
</linearGradient>
</defs>
</svg>
